<?xml version="1.0" encoding="utf-8"?>
<!-- Generator: Adobe Illustrator 26.5.0, SVG Export Plug-In . SVG Version: 6.00 Build 0)  -->
<svg version="1.1" id="Layer_1" xmlns="http://www.w3.org/2000/svg" xmlns:xlink="http://www.w3.org/1999/xlink" x="0px" y="0px"
	 viewBox="0 0 616 133.7" style="enable-background:new 0 0 616 133.7;" xml:space="preserve">
<style type="text/css">
	.st0{fill:#310075;}
	.st1{fill:#00C48A;}
	.st2{fill:#B3B3B3;}
</style>
<g>
	<g id="Layer_2_00000014603252112157370010000000853974504782957188_">
		<g id="Layer_1-2_00000146492995043599716310000016725113141925352601_">
			<path class="st0" d="M187.5,44.8c-0.3,3.7-2,7.2-4.8,9.7c-2.9,2.5-6.6,3.7-10.4,3.6c-4.9,0-8.8-1.7-11.8-5
				c-2.9-3.3-4.4-7.8-4.4-13.3c0-5.7,1.5-10.3,4.4-13.6c2.9-3.4,6.8-5,11.8-5c3.7-0.1,7.4,1.1,10.3,3.4c2.8,2.3,4.5,5.6,4.8,9.1
				h-7.3c-0.2-1.8-1-3.4-2.4-4.5c-1.5-1.2-3.4-1.8-5.3-1.7c-2.6-0.1-5,1.1-6.4,3.3c-1.5,2.2-2.3,5.2-2.3,9s0.8,6.7,2.3,8.8
				c1.4,2.1,3.9,3.3,6.4,3.2c1.9,0.1,3.8-0.6,5.3-1.9c1.4-1.3,2.3-3.1,2.4-5L187.5,44.8z"/>
			<path class="st0" d="M208.4,58c-5.2,0-9.2-1.6-12.3-4.9c-3-3.3-4.6-7.7-4.6-13.3c0-5.7,1.5-10.3,4.6-13.6c3-3.4,7.1-5,12.3-5
				s9.3,1.7,12.3,5s4.6,7.9,4.6,13.6c0,5.6-1.5,10-4.6,13.3C217.6,56.4,213.5,58.1,208.4,58z M208.4,51.8c2.7,0.1,5.3-1.1,7-3.2
				c1.7-2.1,2.5-5.1,2.5-8.9s-0.8-6.8-2.5-9.1c-3.2-3.9-8.9-4.4-12.8-1.2c-0.4,0.4-0.8,0.8-1.2,1.2c-1.7,2.2-2.5,5.2-2.5,9.1
				s0.8,6.9,2.5,8.9C203.1,50.8,205.7,51.9,208.4,51.8L208.4,51.8z"/>
			<path class="st0" d="M237.6,57h-6.8V22h10.7l6.4,27.8l6.3-27.8h10.6v35H258V27.5L251.4,57h-7.2l-6.6-30.1L237.6,57L237.6,57z"/>
			<path class="st0" d="M271.8,57V22h14.6c4,0,7,0.9,9.1,2.8s3.1,4.6,3.1,8.1c0,3.8-1,6.6-3.1,8.6s-5.1,2.9-9.1,2.9
				c-2.8,0-5.3,0-7.3,0.1v12.4L271.8,57L271.8,57L271.8,57z M279.1,38.5h6.1c1.6,0.1,3.3-0.4,4.6-1.3c1.1-1.1,1.6-2.6,1.5-4.1
				c0.1-1.4-0.5-2.8-1.5-3.8c-1.3-0.9-3-1.4-4.6-1.2h-6.1V38.5z"/>
			<path class="st0" d="M304.3,57V22h25.8v6.2h-18.5v7.4h17.1v6h-17.1v9.1h19.3v6.2L304.3,57L304.3,57z"/>
			<path class="st0" d="M344.4,57V28.2h-10.6V22h28.5v6.2h-10.6V57H344.4L344.4,57z"/>
			<path class="st0" d="M366.1,57V22h7.3v35H366.1z"/>
			<path class="st0" d="M387.8,57V28.2h-10.6V22h28.5v6.2h-10.6V57H387.8L387.8,57z"/>
			<path class="st0" d="M409.4,57V22h7.3v35H409.4z"/>
			<path class="st0" d="M420.8,22h7.8l7.7,26.8L444,22h7.5l-11.9,35h-7L420.8,22z"/>
			<path class="st0" d="M456.1,57V22h25.8v6.2h-18.5v7.4h17.1v6h-17.1v9.1h19.3v6.2L456.1,57L456.1,57z"/>
			<path class="st0" d="M495.2,57h-6.8V22h7.7l14.1,24.6V22h6.8v35h-7.3l-14.5-25.2L495.2,57L495.2,57z"/>
			<path class="st0" d="M524,57V22h25.8v6.2h-18.5v7.4h17.1v6h-17.1v9.1h19.3v6.2L524,57L524,57z"/>
			<path class="st0" d="M575.5,32.5c-0.1-1.6-0.9-3.1-2.2-4c-1.5-1-3.4-1.6-5.2-1.5c-1.6-0.1-3.1,0.3-4.4,1.2
				c-1,0.8-1.6,2.1-1.6,3.4c0,1.1,0.7,2,1.6,2.4c2.2,0.9,4.5,1.6,6.9,2c5.1,1.1,8.5,2.5,10.2,4s2.6,3.9,2.6,7.1
				c0.1,3.1-1.4,6-3.9,7.8c-2.6,2-6.1,3-10.5,3s-7.9-1-10.4-3.1c-2.6-2.2-4-5.4-4-8.8h7c0,1.7,0.7,3.3,2,4.3
				c1.6,1.1,3.4,1.6,5.3,1.5c1.9,0.1,3.8-0.3,5.5-1.1c1.2-0.6,2-1.8,2-3.1c0.1-1.2-0.5-2.3-1.4-2.9c-1.9-0.9-3.9-1.6-5.9-1.9
				c-5.6-1.2-9.3-2.6-11.2-4s-2.8-3.7-2.8-6.7c-0.1-3.2,1.3-6.2,3.8-8.2s5.8-3,10-3c3.5-0.2,6.9,1,9.6,3.1c2.5,2.1,4,5.1,4.1,8.4
				h-7.1L575.5,32.5L575.5,32.5z"/>
			<path class="st0" d="M608,32.5c-0.1-1.6-0.9-3.1-2.2-4c-1.5-1-3.4-1.6-5.2-1.5c-1.6-0.1-3.1,0.3-4.4,1.2c-1,0.8-1.6,2.1-1.6,3.4
				c0,1.1,0.7,2,1.6,2.4c2.2,0.9,4.5,1.6,6.9,2c5.1,1.1,8.5,2.5,10.2,4s2.6,3.9,2.6,7.1c0.1,3.1-1.4,6-3.9,7.8c-2.6,2-6.1,3-10.5,3
				s-7.9-1-10.4-3.1c-2.6-2.2-4-5.4-4-8.8h7c0,1.7,0.7,3.3,2,4.3c1.6,1.1,3.4,1.6,5.3,1.5c1.9,0.1,3.8-0.3,5.5-1.1
				c1.2-0.6,2-1.8,2-3.1c0.1-1.2-0.5-2.3-1.4-2.9c-1.9-0.9-3.9-1.6-5.9-1.9c-5.6-1.2-9.3-2.6-11.2-4s-2.8-3.7-2.8-6.7
				c-0.1-3.1,1.2-6.1,3.7-8.1s5.8-3,10-3c3.5-0.2,6.9,1,9.6,3.1c2.5,2.1,4,5.1,4.1,8.4H608z"/>
			<path class="st1" d="M42.8,30.7c-4-2.8-9.5-1.8-12.3,2.1c-2.8,4-1.8,9.5,2.1,12.3s9.5,1.8,12.3-2.1c2.1-3,2.1-7.1,0-10.1L61.8,16
				c4,2.8,9.5,1.8,12.3-2.1c2.8-4,1.8-9.5-2.1-12.3c-4-2.8-9.5-1.8-12.3,2.1c-2.1,3-2.1,7.1,0,10.1L42.8,30.7z"/>
			<path class="st1" d="M32.8,74.1c4,2.8,9.4,1.8,12.2-2.2c2.1-3,2.1-7,0-10.1L61.8,45c4,2.7,9.5,1.7,12.2-2.3c2-3,2-6.9,0-9.9
				L90.8,16c4,2.8,9.5,1.8,12.2-2.2c2.4-3.5,2-8.2-1-11.2l0,0c-3.4-3.4-9-3.4-12.4,0c-3,3-3.4,7.7-1,11.2L71.8,30.6
				c-4-2.8-9.4-1.8-12.2,2.1c-1,1.5-1.6,3.2-1.6,5.1c0,1.8,0.6,3.5,1.6,5L42.8,59.6c-4-2.8-9.4-1.9-12.2,2.1c-2.2,3-2.1,7.1,0,10.2
				L13.8,88.7C9.8,86,4.3,87,1.6,91s-1.7,9.5,2.3,12.2s9.5,1.7,12.2-2.3c2.1-3,2.1-7-0.1-10L32.8,74.1z"/>
			<path class="st1" d="M100.9,30.7c-4-2.8-9.4-1.8-12.2,2.2c-2.1,3-2.1,7,0,10.1L71.9,59.8c-4-2.8-9.5-1.8-12.2,2.2
				c-2.1,3-2.1,7,0,10L42.9,88.8c-4-2.8-9.5-1.8-12.2,2.2c-2.4,3.5-2,8.2,1,11.2c3.4,3.4,9,3.4,12.4,0c3-3,3.4-7.7,1-11.2l16.8-16.8
				c4,2.8,9.4,1.8,12.2-2.2c2.1-3,2.1-7,0-10l16.7-17c3.5,2.4,8.2,2,11.2-1s3.4-7.8,1-11.2L119.8,16c4,2.8,9.5,1.8,12.2-2.2
				c2.4-3.5,2-8.2-1-11.2l0,0c-3.4-3.4-9-3.5-12.4,0c-3,3-3.5,7.8-1,11.3L100.9,30.7z"/>
			<path class="st1" d="M15,44.1c3-3,3.4-7.7,1-11.2L32.8,16c4,2.7,9.5,1.7,12.2-2.3c2.4-3.5,2-8.1-1-11.1c-3.4-3.4-9-3.4-12.4,0
				c-3,3-3.4,7.7-1,11.2L13.8,30.6c-4-2.8-9.4-1.8-12.2,2.2S-0.2,42.2,3.8,45C7.2,47.5,12,47.1,15,44.1z"/>
			<path class="st1" d="M124.9,58.1c-2.3,0-4.6,0.9-6.2,2.6c-3,3-3.4,7.7-1,11.2l-16.8,16.8c-4-2.8-9.5-1.8-12.3,2.1
				c-2.8,4-1.8,9.5,2.1,12.3c4,2.8,9.5,1.8,12.3-2.1c2.1-3,2.1-7.1,0-10.1l16.8-16.8c4,2.8,9.5,1.8,12.2-2.2c2.8-4,1.8-9.5-2.2-12.2
				C128.4,58.6,126.6,58.1,124.9,58.1L124.9,58.1z"/>
			<path class="st1" d="M118.7,31.7c-3,3-3.4,7.7-1,11.2l-16.8,16.8c-4-2.8-9.4-1.8-12.2,2.1c-1,1.5-1.6,3.2-1.6,5.1
				c0,1.8,0.6,3.5,1.6,5L71.9,88.7c-4-2.8-9.4-1.8-12.2,2.1c-2.1,3-2.1,7.1,0,10.1l-16.8,16.8c-4-2.8-9.5-1.8-12.2,2.2
				c-2.8,4-1.8,9.5,2.2,12.2c4,2.8,9.5,1.8,12.2-2.2c2.1-3,2.1-7,0-10.1L61.9,103c4,2.7,9.5,1.7,12.2-2.3c2.1-3,2.1-7,0-10
				l16.8-16.8c4,2.8,9.4,1.8,12.2-2.1c2.1-3,2.1-7.1,0-10.1l16.8-16.8c4,2.8,9.4,1.8,12.2-2.1c1-1.5,1.6-3.2,1.6-5.1
				c0-4.8-3.9-8.8-8.8-8.8C122.6,29.1,120.3,30,118.7,31.7L118.7,31.7z"/>
			<path class="st1" d="M124.9,87.1c-4.8,0-8.8,3.9-8.8,8.8c0,1.8,0.6,3.6,1.6,5l-16.8,16.8c-4-2.8-9.4-1.8-12.2,2.2
				c-2.8,4-1.8,9.4,2.2,12.2s9.4,1.8,12.2-2.2c1-1.5,1.6-3.2,1.6-5s-0.6-3.5-1.6-5l16.8-16.8c4,2.8,9.5,1.8,12.2-2.2
				c2.8-4,1.8-9.5-2.2-12.2C128.4,87.7,126.6,87.2,124.9,87.1L124.9,87.1z"/>
		</g>
	</g>
</g>
<g>
	<path class="st2" d="M158.9,105V78.1h18.4v4.5h-13V89h11.2v4.5h-11.2V105H158.9z"/>
	<path class="st2" d="M187.6,105V78.1h5.4V105H187.6z"/>
	<path class="st2" d="M204.3,105V78.1h5.3l11,18v-18h5V105h-5.4l-10.8-17.5V105H204.3z"/>
	<path class="st2" d="M261.6,105h-5.9l-2.3-6.1h-10.7l-2.2,6.1h-5.8l10.5-26.9h5.7L261.6,105z M251.6,94.3l-3.7-10l-3.6,10H251.6z"
		/>
	<path class="st2" d="M270.6,105V78.1h5.3l11,18v-18h5V105h-5.4l-10.8-17.5V105H270.6z"/>
	<path class="st2" d="M320.8,95.1l5.3,1.7c-0.8,2.9-2.1,5.1-4,6.5c-1.9,1.4-4.3,2.1-7.1,2.1c-3.6,0-6.5-1.2-8.8-3.7
		c-2.3-2.4-3.4-5.8-3.4-10c0-4.5,1.2-8,3.5-10.4c2.3-2.5,5.3-3.7,9.1-3.7c3.3,0,6,1,8,2.9c1.2,1.1,2.1,2.8,2.8,5l-5.4,1.3
		c-0.3-1.4-1-2.5-2-3.3c-1-0.8-2.2-1.2-3.7-1.2c-2,0-3.6,0.7-4.9,2.1c-1.2,1.4-1.9,3.7-1.9,7c0,3.4,0.6,5.8,1.8,7.3
		c1.2,1.4,2.8,2.2,4.8,2.2c1.4,0,2.7-0.5,3.7-1.4S320.4,97.1,320.8,95.1z"/>
	<path class="st2" d="M336.6,105V78.1h5.4V105H336.6z"/>
	<path class="st2" d="M377.5,105h-5.9l-2.3-6.1h-10.7l-2.2,6.1h-5.8L361,78.1h5.7L377.5,105z M367.5,94.3l-3.7-10l-3.6,10H367.5z"/>
	<path class="st2" d="M386.5,105V78.3h5.4v22.1h13.5v4.5H386.5z"/>
</g>
</svg>
